<?xml version="1.0" encoding="utf-8"?>
<!-- Generator: Adobe Illustrator 24.0.1, SVG Export Plug-In . SVG Version: 6.00 Build 0)  -->
<svg version="1.1" id="Layer_1" xmlns="http://www.w3.org/2000/svg" xmlns:xlink="http://www.w3.org/1999/xlink" x="0px" y="0px"
	 viewBox="0 0 34 52" style="enable-background:new 0 0 34 52;" xml:space="preserve">
<style type="text/css">
	.st0{fill:#fe5a0e;}
</style>
<g>
	<g>
		<g>
			<g>
				<g>
					<path class="st0" d="M16.51,21.73c-0.57,0-1.14-0.12-1.67-0.36l-3.17-1.43c-1.45-0.65-2.38-2.1-2.38-3.69v-5.01
						c0-0.5,0.4-0.9,0.9-0.9c0.5,0,0.9,0.4,0.9,0.9v5.01c0,0.88,0.52,1.68,1.32,2.05l3.17,1.43c0.59,0.27,1.27,0.27,1.85,0
						l3.17-1.43c0.8-0.36,1.32-1.17,1.32-2.05v-4.94c0-0.5,0.4-0.9,0.9-0.9c0.5,0,0.9,0.4,0.9,0.9v4.94c0,1.59-0.93,3.03-2.38,3.69
						l-3.17,1.43C17.65,21.61,17.08,21.73,16.51,21.73z"/>
				</g>
			</g>
			<g>
				<path class="st0" d="M14.35,25.36c-0.12,0-0.24-0.02-0.35-0.07l-3.54-1.52c-0.25-0.11-0.44-0.32-0.51-0.58
					c-0.07-0.26-0.03-0.54,0.13-0.76l2.34-3.32c0.29-0.41,0.85-0.5,1.25-0.22c0.41,0.29,0.5,0.85,0.22,1.25l-1.7,2.41l1.8,0.77
					l1.76-2.95c0.25-0.43,0.81-0.57,1.23-0.31c0.43,0.25,0.57,0.81,0.31,1.23l-2.16,3.63C14.95,25.2,14.66,25.36,14.35,25.36z"/>
			</g>
			<g>
				<path class="st0" d="M18.59,25.36c-0.31,0-0.61-0.16-0.77-0.44l-2.16-3.63c-0.25-0.43-0.11-0.98,0.31-1.23
					c0.43-0.25,0.98-0.11,1.23,0.31l1.76,2.95l1.8-0.77l-1.7-2.41c-0.29-0.41-0.19-0.97,0.22-1.25c0.41-0.29,0.97-0.19,1.25,0.22
					l2.34,3.32c0.16,0.22,0.2,0.5,0.13,0.76c-0.07,0.26-0.26,0.47-0.51,0.58l-3.54,1.52C18.83,25.34,18.71,25.36,18.59,25.36z"/>
			</g>
			<g>
				<path class="st0" d="M16.43,27.35c-0.22,0-0.45-0.08-0.62-0.25l-2.08-1.99c-0.36-0.34-0.37-0.91-0.03-1.27
					c0.34-0.36,0.91-0.37,1.27-0.03l2.08,1.99c0.36,0.34,0.37,0.91,0.03,1.27C16.9,27.26,16.67,27.35,16.43,27.35z"/>
			</g>
			<g>
				<path class="st0" d="M15.02,29.67c-0.16,0-0.32-0.04-0.47-0.13c-0.42-0.26-0.56-0.81-0.3-1.24l1.41-2.31
					c0.26-0.42,0.81-0.56,1.24-0.3c0.42,0.26,0.56,0.81,0.3,1.24l-1.41,2.31C15.62,29.51,15.32,29.67,15.02,29.67z"/>
			</g>
			<g>
				<path class="st0" d="M16.43,27.35c-0.24,0-0.47-0.09-0.65-0.28c-0.34-0.36-0.33-0.93,0.03-1.27l2.08-1.99
					c0.36-0.34,0.93-0.33,1.27,0.03c0.34,0.36,0.33,0.93-0.03,1.27l-2.08,1.99C16.88,27.27,16.65,27.35,16.43,27.35z"/>
			</g>
			<g>
				<path class="st0" d="M17.74,29.67c-0.31,0-0.62-0.17-0.78-0.46l-1.31-2.31c-0.25-0.43-0.09-0.98,0.34-1.23
					c0.43-0.25,0.98-0.09,1.23,0.34l1.31,2.31c0.25,0.43,0.09,0.98-0.34,1.23C18.04,29.63,17.89,29.67,17.74,29.67z"/>
			</g>
		</g>
		<g>
			<g>
				<path class="st0" d="M25.03,9.64H7.99c-0.5,0-0.9-0.4-0.9-0.9c0-0.5,0.4-0.9,0.9-0.9h17.04c0.5,0,0.9,0.4,0.9,0.9
					C25.93,9.23,25.52,9.64,25.03,9.64z"/>
			</g>
			<g>
				<path class="st0" d="M23.58,9.64c-0.5,0-0.9-0.4-0.9-0.9c0-3.44-1.91-6.92-6.17-6.92c-4.26,0-6.17,3.47-6.17,6.92
					c0,0.5-0.4,0.9-0.9,0.9c-0.5,0-0.9-0.4-0.9-0.9c0-4.2,2.49-8.72,7.97-8.72c5.48,0,7.97,4.52,7.97,8.72
					C24.48,9.23,24.08,9.64,23.58,9.64z"/>
			</g>
			<g>
				<path class="st0" d="M14.24,9.64c-0.5,0-0.9-0.4-0.9-0.9V1.29c0-0.5,0.4-0.9,0.9-0.9c0.5,0,0.9,0.4,0.9,0.9v7.44
					C15.14,9.23,14.73,9.64,14.24,9.64z"/>
			</g>
			<g>
				<path class="st0" d="M18.78,9.64c-0.5,0-0.9-0.4-0.9-0.9V1.29c0-0.5,0.4-0.9,0.9-0.9c0.5,0,0.9,0.4,0.9,0.9v7.44
					C19.68,9.23,19.28,9.64,18.78,9.64z"/>
			</g>
		</g>
	</g>
	<g>
		<path class="st0" d="M29.76,48.09H3.26c-0.44,0-0.82-0.32-0.89-0.76l-2.49-15.59c-0.04-0.26,0.03-0.53,0.2-0.73
			c0.17-0.2,0.42-0.32,0.68-0.32h31.47c0.26,0,0.51,0.12,0.68,0.32c0.17,0.2,0.25,0.47,0.2,0.73l-2.49,15.59
			C30.58,47.76,30.2,48.09,29.76,48.09z M4.03,46.29h24.96l2.2-13.79H1.83L4.03,46.29z"/>
	</g>
	<g>
		<path class="st0" d="M27.59,51.34H5.43c-1.69,0-3.07-1.38-3.07-3.07v-1.09c0-0.5,0.4-0.9,0.9-0.9h26.49c0.5,0,0.9,0.4,0.9,0.9
			v1.09C30.66,49.96,29.28,51.34,27.59,51.34z M4.16,48.09v0.19c0,0.7,0.57,1.27,1.27,1.27h22.16c0.7,0,1.27-0.57,1.27-1.27v-0.19
			H4.16z"/>
	</g>
	<g>
		<g>
			<path class="st0" d="M16.51,41.98c-1.43,0-2.6-1.17-2.6-2.6c0-1.43,1.16-2.6,2.6-2.6c1.43,0,2.6,1.17,2.6,2.6
				C19.1,40.82,17.94,41.98,16.51,41.98z M16.51,38.59c-0.44,0-0.8,0.36-0.8,0.8c0,0.44,0.36,0.8,0.8,0.8c0.44,0,0.8-0.36,0.8-0.8
				C17.3,38.95,16.95,38.59,16.51,38.59z"/>
		</g>
		<g>
			<path class="st0" d="M16.51,44.79c-2.98,0-5.4-2.42-5.4-5.4c0-2.98,2.42-5.4,5.4-5.4c2.98,0,5.4,2.42,5.4,5.4
				C21.91,42.36,19.49,44.79,16.51,44.79z M16.51,35.79c-1.98,0-3.6,1.61-3.6,3.6c0,1.98,1.61,3.6,3.6,3.6c1.98,0,3.6-1.61,3.6-3.6
				C20.11,37.4,18.49,35.79,16.51,35.79z"/>
		</g>
		<g>
			<path class="st0" d="M16.51,35.79c-0.5,0-0.9-0.4-0.9-0.9v-1.38c0-0.5,0.4-0.9,0.9-0.9c0.5,0,0.9,0.4,0.9,0.9v1.38
				C17.41,35.39,17.01,35.79,16.51,35.79z"/>
		</g>
		<g>
			<path class="st0" d="M13.33,37.11c-0.23,0-0.46-0.09-0.64-0.26l-0.98-0.97c-0.35-0.35-0.35-0.92,0-1.27
				c0.35-0.35,0.92-0.35,1.27,0l0.98,0.97c0.35,0.35,0.35,0.92,0,1.27C13.79,37.02,13.56,37.11,13.33,37.11z"/>
		</g>
		<g>
			<path class="st0" d="M12.01,40.29h-1.38c-0.5,0-0.9-0.4-0.9-0.9c0-0.5,0.4-0.9,0.9-0.9h1.38c0.5,0,0.9,0.4,0.9,0.9
				C12.91,39.89,12.51,40.29,12.01,40.29z"/>
		</g>
		<g>
			<path class="st0" d="M12.35,44.45c-0.23,0-0.46-0.09-0.64-0.26c-0.35-0.35-0.35-0.92,0-1.27l0.98-0.98
				c0.35-0.35,0.92-0.35,1.27,0c0.35,0.35,0.35,0.92,0,1.27l-0.98,0.98C12.81,44.36,12.58,44.45,12.35,44.45z"/>
		</g>
		<g>
			<path class="st0" d="M16.51,46.17c-0.5,0-0.9-0.4-0.9-0.9v-1.38c0-0.5,0.4-0.9,0.9-0.9c0.5,0,0.9,0.4,0.9,0.9v1.38
				C17.41,45.76,17.01,46.17,16.51,46.17z"/>
		</g>
		<g>
			<path class="st0" d="M20.67,44.45c-0.23,0-0.46-0.09-0.64-0.26l-0.97-0.98c-0.35-0.35-0.35-0.92,0-1.27
				c0.35-0.35,0.92-0.35,1.27,0l0.97,0.98c0.35,0.35,0.35,0.92,0,1.27C21.13,44.36,20.9,44.45,20.67,44.45z"/>
		</g>
		<g>
			<path class="st0" d="M22.39,40.29h-1.38c-0.5,0-0.9-0.4-0.9-0.9c0-0.5,0.4-0.9,0.9-0.9h1.38c0.5,0,0.9,0.4,0.9,0.9
				C23.29,39.89,22.88,40.29,22.39,40.29z"/>
		</g>
		<g>
			<path class="st0" d="M19.69,37.11c-0.23,0-0.46-0.09-0.64-0.26c-0.35-0.35-0.35-0.92,0-1.27l0.97-0.97
				c0.35-0.35,0.92-0.35,1.27,0c0.35,0.35,0.35,0.92,0,1.27l-0.97,0.97C20.15,37.02,19.92,37.11,19.69,37.11z"/>
		</g>
	</g>
	<g>
		<path class="st0" d="M29.34,29.67c-0.5,0-0.9-0.4-0.9-0.9c0-1.35-0.8-2.56-2.05-3.09l-4.53-1.91c-0.46-0.19-0.67-0.72-0.48-1.18
			c0.19-0.46,0.72-0.67,1.18-0.48l4.53,1.91c1.91,0.81,3.15,2.67,3.15,4.75C30.24,29.27,29.83,29.67,29.34,29.67z"/>
	</g>
	<g>
		<path class="st0" d="M3.68,29.67c-0.5,0-0.9-0.4-0.9-0.9c0-2.08,1.24-3.94,3.15-4.75l4.52-1.91c0.46-0.19,0.99,0.02,1.18,0.48
			c0.19,0.46-0.02,0.99-0.48,1.18l-4.52,1.91c-1.24,0.53-2.05,1.74-2.05,3.09C4.58,29.27,4.18,29.67,3.68,29.67z"/>
	</g>
</g>
</svg>
