<?xml version="1.0" encoding="utf-8"?>
<!-- Generator: Adobe Illustrator 24.0.1, SVG Export Plug-In . SVG Version: 6.00 Build 0)  -->
<svg version="1.1" id="Layer_1" xmlns="http://www.w3.org/2000/svg" xmlns:xlink="http://www.w3.org/1999/xlink" x="0px" y="0px"
	 viewBox="0 0 35 51" style="enable-background:new 0 0 35 51;" xml:space="preserve">
<style type="text/css">
	.st0{fill:#fe5a0e;}
</style>
<g>
	<g>
		<g>
			<g>
				<g>
					<path class="st0" d="M4.04,31.07c-0.5,0-0.9-0.4-0.9-0.9c0-2.2,1.31-4.18,3.34-5.03l4.85-2.05c0.46-0.19,0.99,0.02,1.18,0.48
						c0.19,0.46-0.02,0.99-0.48,1.18l-4.85,2.05c-1.36,0.57-2.24,1.9-2.24,3.38C4.94,30.67,4.54,31.07,4.04,31.07z"/>
				</g>
				<g>
					<path class="st0" d="M31.57,31.07c-0.5,0-0.9-0.4-0.9-0.9c0-1.48-0.88-2.8-2.24-3.38l-4.86-2.05
						c-0.46-0.19-0.67-0.72-0.48-1.18c0.19-0.46,0.72-0.67,1.18-0.48l4.86,2.05c2.03,0.86,3.34,2.83,3.34,5.03
						C32.47,30.67,32.06,31.07,31.57,31.07z"/>
				</g>
				<g>
					<path class="st0" d="M17.8,22.55c-0.6,0-1.2-0.13-1.76-0.38l-3.4-1.54c-1.53-0.69-2.51-2.22-2.51-3.9v-5.58
						c0-0.5,0.4-0.9,0.9-0.9c0.5,0,0.9,0.4,0.9,0.9v5.58c0,0.97,0.57,1.86,1.46,2.26l3.4,1.54c0.65,0.29,1.39,0.29,2.04,0l3.4-1.54
						c0.89-0.4,1.46-1.29,1.46-2.26v-5.42c0-0.5,0.4-0.9,0.9-0.9c0.5,0,0.9,0.4,0.9,0.9v5.42c0,1.68-0.99,3.21-2.51,3.9l-3.4,1.54
						C19.01,22.43,18.41,22.55,17.8,22.55z"/>
				</g>
			</g>
			<g>
				<path class="st0" d="M15.48,26.45c-0.12,0-0.24-0.02-0.35-0.07l-3.8-1.63c-0.25-0.11-0.44-0.32-0.51-0.58
					c-0.07-0.26-0.03-0.54,0.13-0.76l2.51-3.56c0.29-0.41,0.85-0.5,1.25-0.22c0.41,0.29,0.5,0.85,0.22,1.25l-1.87,2.66l2.06,0.88
					l1.92-3.22c0.25-0.43,0.81-0.57,1.23-0.31c0.43,0.25,0.57,0.81,0.31,1.23l-2.32,3.89C16.09,26.29,15.79,26.45,15.48,26.45z"/>
			</g>
			<g>
				<path class="st0" d="M20.04,26.45c-0.31,0-0.61-0.16-0.77-0.44l-2.32-3.89c-0.25-0.43-0.11-0.98,0.31-1.23
					c0.43-0.25,0.98-0.11,1.23,0.31l1.92,3.22l2.06-0.88l-1.87-2.66c-0.29-0.41-0.19-0.97,0.22-1.25c0.41-0.29,0.97-0.19,1.25,0.22
					l2.51,3.56c0.16,0.22,0.2,0.5,0.13,0.76s-0.26,0.48-0.51,0.58l-3.8,1.63C20.28,26.42,20.16,26.45,20.04,26.45z"/>
			</g>
			<g>
				<path class="st0" d="M17.72,29.24c-0.26,0-0.52-0.12-0.7-0.34l-2.24-2.79c-0.31-0.39-0.25-0.95,0.14-1.27
					c0.39-0.31,0.95-0.25,1.27,0.14l2.24,2.79c0.31,0.39,0.25,0.96-0.14,1.27C18.12,29.17,17.92,29.24,17.72,29.24z"/>
			</g>
			<g>
				<path class="st0" d="M15.83,32.05c-0.17,0-0.35-0.05-0.5-0.15c-0.41-0.28-0.52-0.84-0.25-1.25l1.89-2.81
					c0.28-0.41,0.84-0.52,1.25-0.25c0.41,0.28,0.52,0.84,0.25,1.25l-1.89,2.81C16.41,31.91,16.12,32.05,15.83,32.05z"/>
			</g>
			<g>
				<path class="st0" d="M17.72,29.24c-0.2,0-0.4-0.07-0.56-0.2c-0.39-0.31-0.45-0.88-0.14-1.27l2.24-2.79
					c0.31-0.39,0.88-0.45,1.27-0.14c0.39,0.31,0.45,0.88,0.14,1.27l-2.24,2.79C18.24,29.12,17.98,29.24,17.72,29.24z"/>
			</g>
			<g>
				<path class="st0" d="M19.61,32.04c-0.29,0-0.57-0.14-0.75-0.4l-1.89-2.81c-0.28-0.41-0.17-0.97,0.24-1.25
					c0.41-0.28,0.97-0.17,1.25,0.25l1.89,2.81c0.28,0.41,0.17,0.97-0.24,1.25C19.96,31.99,19.78,32.04,19.61,32.04z"/>
			</g>
		</g>
		<g>
			<g>
				<path class="st0" d="M26.94,9.88H8.66c-0.5,0-0.9-0.4-0.9-0.9s0.4-0.9,0.9-0.9h18.28c0.5,0,0.9,0.4,0.9,0.9
					S27.44,9.88,26.94,9.88z"/>
			</g>
			<g>
				<path class="st0" d="M25.39,9.88c-0.5,0-0.9-0.4-0.9-0.9c0-3.73-2.07-7.49-6.69-7.49c-4.62,0-6.69,3.76-6.69,7.49
					c0,0.5-0.4,0.9-0.9,0.9s-0.9-0.4-0.9-0.9c0-4.47,2.66-9.29,8.49-9.29c5.83,0,8.49,4.82,8.49,9.29
					C26.29,9.48,25.89,9.88,25.39,9.88z"/>
			</g>
			<g>
				<path class="st0" d="M15.36,9.88c-0.5,0-0.9-0.4-0.9-0.9V1c0-0.5,0.4-0.9,0.9-0.9s0.9,0.4,0.9,0.9v7.99
					C16.26,9.48,15.86,9.88,15.36,9.88z"/>
			</g>
			<g>
				<path class="st0" d="M20.24,9.88c-0.5,0-0.9-0.4-0.9-0.9V1c0-0.5,0.4-0.9,0.9-0.9c0.5,0,0.9,0.4,0.9,0.9v7.99
					C21.14,9.48,20.74,9.88,20.24,9.88z"/>
			</g>
		</g>
	</g>
	<g>
		<g>
			<path class="st0" d="M34.24,34.84h-1c-0.5,0-0.9-0.4-0.9-0.9c0-0.5,0.4-0.9,0.9-0.9h1c0.5,0,0.9,0.4,0.9,0.9
				C35.14,34.43,34.74,34.84,34.24,34.84z"/>
		</g>
		<g>
			<path class="st0" d="M30.44,34.84h-1.87c-0.5,0-0.9-0.4-0.9-0.9c0-0.5,0.4-0.9,0.9-0.9h1.87c0.5,0,0.9,0.4,0.9,0.9
				C31.34,34.43,30.93,34.84,30.44,34.84z M25.76,34.84h-1.87c-0.5,0-0.9-0.4-0.9-0.9c0-0.5,0.4-0.9,0.9-0.9h1.87
				c0.5,0,0.9,0.4,0.9,0.9C26.66,34.43,26.25,34.84,25.76,34.84z M21.08,34.84h-1.87c-0.5,0-0.9-0.4-0.9-0.9c0-0.5,0.4-0.9,0.9-0.9
				h1.87c0.5,0,0.9,0.4,0.9,0.9C21.98,34.43,21.58,34.84,21.08,34.84z M16.4,34.84h-1.87c-0.5,0-0.9-0.4-0.9-0.9
				c0-0.5,0.4-0.9,0.9-0.9h1.87c0.5,0,0.9,0.4,0.9,0.9C17.3,34.43,16.9,34.84,16.4,34.84z M11.72,34.84H9.85c-0.5,0-0.9-0.4-0.9-0.9
				c0-0.5,0.4-0.9,0.9-0.9h1.87c0.5,0,0.9,0.4,0.9,0.9C12.62,34.43,12.22,34.84,11.72,34.84z M7.04,34.84H5.17
				c-0.5,0-0.9-0.4-0.9-0.9c0-0.5,0.4-0.9,0.9-0.9h1.87c0.5,0,0.9,0.4,0.9,0.9C7.94,34.43,7.54,34.84,7.04,34.84z"/>
		</g>
		<g>
			<path class="st0" d="M2.36,34.84h-1c-0.5,0-0.9-0.4-0.9-0.9c0-0.5,0.4-0.9,0.9-0.9h1c0.5,0,0.9,0.4,0.9,0.9
				C3.26,34.43,2.86,34.84,2.36,34.84z"/>
		</g>
	</g>
	<g>
		<g>
			<path class="st0" d="M19.8,50.92h-3.99c-0.5,0-0.9-0.4-0.9-0.9v-2.43c-0.93-0.25-1.82-0.62-2.65-1.1l-1.72,1.72
				c-0.35,0.35-0.92,0.35-1.27,0l-2.82-2.82c-0.35-0.35-0.35-0.92,0-1.27l1.72-1.72c-0.48-0.83-0.85-1.72-1.1-2.65H4.63
				c-0.5,0-0.9-0.4-0.9-0.9v-2c0-0.5,0.4-0.9,0.9-0.9s0.9,0.4,0.9,0.9v1.09h2.25c0.43,0,0.8,0.3,0.88,0.73
				c0.24,1.21,0.71,2.34,1.39,3.36c0.24,0.36,0.19,0.83-0.11,1.14l-1.59,1.59L9.9,46.3l1.59-1.59c0.3-0.3,0.78-0.35,1.14-0.11
				c1.02,0.68,2.15,1.15,3.36,1.39c0.42,0.08,0.73,0.45,0.73,0.88v2.25h2.19v-2.25c0-0.43,0.3-0.8,0.73-0.88
				c1.21-0.24,2.34-0.71,3.36-1.39c0.36-0.24,0.83-0.19,1.14,0.11l1.59,1.59l1.55-1.55l-1.59-1.59c-0.3-0.3-0.35-0.78-0.11-1.14
				c0.68-1.02,1.15-2.15,1.39-3.36c0.08-0.42,0.45-0.73,0.88-0.73h2.25v-1.09c0-0.5,0.4-0.9,0.9-0.9c0.5,0,0.9,0.4,0.9,0.9v2
				c0,0.5-0.4,0.9-0.9,0.9h-2.43c-0.25,0.93-0.62,1.82-1.1,2.65l1.72,1.72c0.35,0.35,0.35,0.92,0,1.27l-2.82,2.82
				c-0.35,0.35-0.92,0.35-1.27,0l-1.72-1.72c-0.83,0.48-1.72,0.85-2.65,1.1v2.43C20.7,50.52,20.3,50.92,19.8,50.92z"/>
		</g>
		<g>
			<path class="st0" d="M17.8,43.12c-3.46,0-6.28-2.82-6.28-6.28c0-0.5,0.4-0.9,0.9-0.9c0.5,0,0.9,0.4,0.9,0.9
				c0,2.47,2.01,4.48,4.48,4.48c2.47,0,4.48-2.01,4.48-4.48c0-0.5,0.4-0.9,0.9-0.9c0.5,0,0.9,0.4,0.9,0.9
				C24.08,40.3,21.26,43.12,17.8,43.12z"/>
		</g>
	</g>
</g>
</svg>
