<?xml version="1.0" encoding="iso-8859-1"?>
<!-- Generator: Adobe Illustrator 24.0.1, SVG Export Plug-In . SVG Version: 6.00 Build 0)  -->
<svg version="1.1" id="Capa_1" xmlns="http://www.w3.org/2000/svg" xmlns:xlink="http://www.w3.org/1999/xlink" x="0px" y="0px"
	 viewBox="-49 141 512 512" style="enable-background:new -49 141 512 512;" xml:space="preserve">
<g>
	<path style="fill:#ffffff;" d="M356.385,653c13.543,0.058,27.033-1.704,40.107-5.239c15.212-4.264,28.18-14.256,36.181-27.878
		l26.061-43.315c8.301-13.791,4.282-31.672-9.122-40.585l-103.646-69.12c-13.153-8.701-30.785-5.838-40.508,6.579l-30.191,38.818
		c-3.881,5.116-10.933,6.6-16.546,3.482l-5.743-3.166c-19.038-10.377-42.726-23.296-90.453-71.04s-60.672-71.45-71.049-90.453
		l-3.149-5.743c-3.161-5.612-1.705-12.695,3.413-16.606l38.793-30.182c12.412-9.725,15.279-27.351,6.588-40.508l-69.12-103.646
		c-8.908-13.397-26.778-17.419-40.567-9.131l-43.341,26.035c-13.619,8.005-23.609,20.972-27.878,36.181
		C-59.394,264.349-47.652,362.491,96.92,507.08C211.924,622.075,297.539,653,356.385,653z M-27.325,211.997
		c3.116-10.968,10.354-20.307,20.198-26.061l43.341-26.001c5.983-3.6,13.739-1.855,17.604,3.959l37.547,56.371l31.514,47.266
		c3.774,5.707,2.534,13.356-2.85,17.579l-38.801,30.182c-11.808,9.029-15.18,25.366-7.91,38.332l3.081,5.598
		c10.906,20.002,24.465,44.885,73.967,94.379s74.377,63.053,94.37,73.958l5.606,3.089c12.965,7.269,29.303,3.898,38.332-7.91
		l30.182-38.801c4.224-5.381,11.87-6.62,17.579-2.85l103.637,69.12c5.819,3.863,7.564,11.622,3.959,17.604l-26.001,43.341
		c-5.746,9.832-15.072,17.061-26.027,20.173c-52.497,14.413-144.213,2.475-283.008-136.32S-41.738,264.503-27.325,211.997z"/>
	<path style="fill:#ffffff;" d="M241.133,226.333c80.081,0.089,144.977,64.986,145.067,145.067c0,4.713,3.821,8.533,8.533,8.533
		c4.713,0,8.533-3.821,8.533-8.533c-0.099-89.503-72.63-162.035-162.133-162.133c-4.713,0-8.533,3.821-8.533,8.533
		S236.421,226.333,241.133,226.333z"/>
	<path style="fill:#ffffff;" d="M241.133,277.533c51.816,0.061,93.806,42.051,93.867,93.867c0,4.713,3.82,8.533,8.533,8.533
		s8.533-3.821,8.533-8.533c-0.071-61.238-49.696-110.863-110.933-110.933c-4.713,0-8.533,3.82-8.533,8.533
		S236.421,277.533,241.133,277.533z"/>
	<path style="fill:#ffffff;" d="M241.133,328.733c23.552,0.028,42.638,19.114,42.667,42.667c0,4.713,3.82,8.533,8.533,8.533
		s8.533-3.821,8.533-8.533c-0.038-32.974-26.759-59.696-59.733-59.733c-4.713,0-8.533,3.82-8.533,8.533
		S236.421,328.733,241.133,328.733z"/>
</g>
</svg>
